<?xml version="1.0" standalone="no"?>
<!DOCTYPE svg PUBLIC "-//W3C//DTD SVG 20010904//EN"
 "http://www.w3.org/TR/2001/REC-SVG-20010904/DTD/svg10.dtd">
<svg version="1.0" xmlns="http://www.w3.org/2000/svg"
 width="128.000000pt" height="128.000000pt" viewBox="0 0 128.000000 128.000000"
 preserveAspectRatio="xMidYMid meet">

<g transform="translate(0.000000,128.000000) scale(0.100000,-0.100000)"
fill="#000000" stroke="none">
<path d="M450 1045 c-96 -57 -186 -109 -200 -115 -59 -26 -57 -19 -56 -289 1
-265 3 -273 51 -285 14 -4 25 -10 25 -15 0 -15 65 -51 91 -51 44 0 96 20 123
47 l26 26 -2 231 -3 231 -25 0 -25 0 -3 -214 c-3 -236 -5 -243 -64 -256 -24
-6 -40 0 -84 29 l-54 36 0 200 c1 110 -2 205 -5 210 -6 9 37 60 50 60 5 0 84
43 177 96 l169 96 187 -109 187 -109 0 -224 0 -224 -187 -109 -187 -109 -51
28 c-40 22 -55 26 -68 17 -9 -5 -17 -16 -17 -24 0 -15 87 -76 122 -85 16 -4
80 27 240 119 l218 124 0 263 0 263 -215 123 c-118 68 -222 124 -230 124 -8 0
-94 -47 -190 -105z"/>
<path d="M684 816 c-45 -20 -74 -62 -74 -108 0 -59 37 -90 142 -122 47 -15 93
-35 102 -45 37 -41 -3 -81 -81 -81 -57 0 -90 17 -102 52 -14 40 -54 37 -59 -5
-16 -134 290 -155 324 -23 18 73 -29 124 -148 160 -113 34 -141 62 -100 99 25
23 83 30 131 17 33 -9 45 -18 53 -41 8 -25 15 -30 37 -27 57 7 26 95 -45 124
-42 18 -139 17 -180 0z"/>
</g>
</svg>
