<?xml version="1.0" standalone="no"?>
<!DOCTYPE svg PUBLIC "-//W3C//DTD SVG 20010904//EN"
 "http://www.w3.org/TR/2001/REC-SVG-20010904/DTD/svg10.dtd">
<svg version="1.0" xmlns="http://www.w3.org/2000/svg"
 width="866.000000pt" height="650.000000pt" viewBox="0 0 866.000000 650.000000"
 preserveAspectRatio="xMidYMid meet">

<g transform="translate(0.000000,650.000000) scale(0.100000,-0.100000)"
fill="#000000" stroke="none">
<path d="M2995 6179 c-214 -89 -363 -382 -406 -798 -15 -141 -6 -491 16 -611
8 -47 15 -90 15 -96 0 -6 -30 -35 -66 -64 -113 -91 -245 -263 -323 -418 -47
-94 -97 -253 -117 -371 -24 -149 -16 -380 19 -512 32 -122 73 -219 132 -315
l47 -75 -40 -82 c-201 -417 -187 -1048 31 -1407 37 -60 39 -67 27 -95 -47
-116 -94 -265 -116 -368 -43 -205 -44 -476 -3 -629 l10 -38 179 0 c99 0 180 2
180 5 0 3 -8 22 -19 43 -35 70 -46 141 -45 292 2 222 44 399 145 605 40 84 49
111 49 156 0 53 -3 58 -60 125 -74 88 -115 169 -146 292 -86 340 -31 753 128
966 47 63 53 75 56 130 4 66 -5 85 -98 201 -56 71 -94 146 -126 250 -25 82
-27 104 -27 245 0 126 4 169 21 232 52 190 147 352 280 480 91 87 185 145 298
185 75 26 88 28 249 28 211 0 220 4 281 117 97 179 216 292 407 384 137 66
195 79 357 79 133 0 152 -2 230 -29 244 -81 429 -231 533 -431 61 -117 69
-120 287 -120 165 -1 179 -2 250 -28 271 -99 485 -348 572 -665 32 -116 32
-346 0 -457 -29 -102 -80 -206 -131 -270 -126 -156 -134 -209 -52 -320 59 -79
78 -114 110 -210 126 -377 72 -843 -123 -1063 -55 -62 -56 -65 -56 -122 0 -51
7 -73 50 -159 146 -293 189 -653 104 -878 l-23 -63 179 0 179 0 10 38 c24 90
33 194 28 337 -7 219 -44 399 -124 599 -34 86 -35 91 -19 115 75 117 134 272
168 444 19 95 22 145 22 322 0 293 -33 460 -131 666 l-45 96 55 91 c60 99 104
211 133 337 15 64 19 118 18 275 0 185 -2 201 -31 310 -72 271 -229 528 -416
679 -37 30 -67 58 -67 63 0 4 8 52 17 106 13 74 17 158 18 357 0 301 -17 426
-83 621 -70 204 -177 351 -301 411 -49 25 -68 28 -151 28 -84 0 -101 -3 -148
-27 -117 -61 -195 -150 -273 -313 -60 -125 -93 -239 -126 -430 -14 -82 -26
-151 -27 -153 -2 -1 -45 20 -97 47 -178 93 -337 133 -529 135 -202 1 -366 -39
-549 -135 -52 -27 -96 -47 -98 -45 -2 2 -10 48 -18 102 -61 410 -201 685 -400
787 -81 41 -203 48 -280 16z m170 -351 c45 -49 105 -174 134 -280 38 -136 52
-239 58 -414 l6 -170 -27 -41 -27 -40 -104 -7 c-57 -4 -139 -16 -182 -26 -43
-10 -81 -15 -85 -11 -12 11 -28 185 -28 304 0 239 44 469 120 617 22 42 77
110 90 110 4 0 25 -19 45 -42z m2415 5 c123 -140 193 -522 161 -872 -6 -69
-13 -126 -15 -128 -2 -2 -41 6 -87 16 -46 11 -130 23 -186 27 l-102 7 -26 38
c-23 36 -25 46 -25 163 0 233 45 466 119 622 35 74 102 164 121 164 4 0 23
-17 40 -37z"/>
<path d="M4195 3719 c-356 -48 -647 -262 -746 -549 -17 -48 -24 -95 -27 -180
-4 -105 -2 -123 23 -195 14 -44 36 -96 47 -115 112 -188 304 -317 538 -361
101 -19 527 -16 616 4 274 62 475 221 561 445 35 90 43 256 18 352 -74 286
-341 516 -676 584 -98 19 -267 27 -354 15z m354 -249 c136 -38 217 -85 312
-179 93 -93 128 -153 149 -254 33 -163 -68 -341 -247 -430 -133 -68 -160 -72
-438 -72 -248 0 -251 0 -330 28 -102 36 -150 64 -223 131 -98 91 -144 218
-123 337 39 222 259 407 548 459 78 14 268 3 352 -20z"/>
<path d="M4150 3170 c-49 -49 -33 -114 42 -168 39 -27 48 -39 44 -56 -3 -12
-8 -43 -11 -71 -6 -42 -3 -54 15 -77 19 -25 28 -28 80 -28 95 0 114 29 96 146
l-8 52 47 33 c78 56 93 106 49 158 -21 25 -33 31 -65 31 -22 0 -57 -9 -77 -19
-36 -19 -38 -19 -72 0 -48 25 -114 25 -140 -1z"/>
<path d="M3160 3680 c-103 -19 -182 -113 -196 -232 -12 -107 73 -212 183 -224
77 -10 115 2 168 48 160 141 110 384 -85 410 -19 3 -51 2 -70 -2z"/>
<path d="M5365 3663 c-77 -40 -115 -103 -115 -190 1 -99 57 -190 144 -235 32
-17 52 -19 104 -15 79 6 135 41 172 107 59 108 4 271 -112 331 -47 24 -150 25
-193 2z"/>
</g>
</svg>
