<?xml version="1.0" standalone="no"?>
<!DOCTYPE svg PUBLIC "-//W3C//DTD SVG 20010904//EN"
 "http://www.w3.org/TR/2001/REC-SVG-20010904/DTD/svg10.dtd">
<svg version="1.0" xmlns="http://www.w3.org/2000/svg"
 width="222.000000pt" height="227.000000pt" viewBox="0 0 222.000000 227.000000"
 preserveAspectRatio="xMidYMid meet">

<g transform="translate(0.000000,227.000000) scale(0.100000,-0.100000)"
fill="#000000" stroke="none">
<path d="M1120 1910 c-30 -11 -77 -19 -104 -20 -240 -1 -489 -194 -582 -450
-33 -93 -54 -200 -54 -281 0 -62 2 -69 20 -69 11 0 20 4 20 8 0 5 6 17 14 28
14 17 14 16 11 -21 -10 -102 30 -310 62 -322 23 -9 48 11 49 38 2 51 4 57 20
63 24 9 47 -16 68 -74 28 -78 46 -81 110 -20 29 27 60 50 68 50 23 0 45 -30
76 -106 37 -89 51 -92 128 -23 100 87 118 86 148 -8 22 -67 38 -81 73 -62 14
8 40 29 57 46 22 24 38 32 61 32 16 -1 66 12 110 28 79 29 80 30 101 81 26 66
34 73 34 34 0 -36 16 -50 36 -31 21 21 73 181 84 257 46 315 -98 607 -360 731
-36 17 -71 31 -77 31 -18 0 -16 17 3 28 9 5 14 18 12 28 -5 28 -114 31 -188 4z
m-115 -322 c-8 -36 -8 -36 -6 -60 1 -25 43 -23 66 2 29 32 40 24 41 -29 4
-111 65 -122 90 -16 9 38 33 88 47 97 6 4 30 -10 52 -31 22 -21 75 -60 116
-88 57 -39 81 -62 100 -99 26 -48 44 -104 35 -104 -3 0 -27 13 -54 29 -71 42
-114 55 -154 47 -97 -18 -137 -123 -78 -205 13 -19 38 -34 77 -46 32 -10 78
-27 102 -37 l44 -19 -32 -33 c-109 -113 -327 -151 -509 -90 -105 35 -172 75
-229 138 -73 80 -117 176 -80 176 6 0 52 -5 101 -10 97 -10 120 -4 164 43 30
32 34 101 9 141 -36 54 -72 68 -169 64 -49 -3 -88 -2 -88 1 0 13 47 59 86 85
28 18 68 31 125 40 46 8 95 19 109 24 39 16 42 14 35 -20z m-167 -214 c29 -20
29 -54 0 -54 -12 0 -32 -10 -46 -22 -23 -23 -24 -23 -38 -4 -19 26 -18 39 7
70 23 30 45 33 77 10z m543 -114 c24 -13 25 -49 2 -56 -10 -3 -25 -10 -33 -15
-34 -21 -43 -22 -56 -4 -18 24 -18 28 7 59 22 28 48 33 80 16z"/>
<path d="M1016 1248 c-21 -30 -20 -54 4 -78 27 -27 64 -25 88 5 34 43 7 94
-50 95 -17 0 -33 -8 -42 -22z"/>
<path d="M890 1145 c0 -33 32 -77 66 -91 19 -8 39 -12 44 -9 5 3 26 -1 46 -10
20 -8 46 -15 57 -15 29 0 87 41 87 62 0 29 -17 29 -49 2 -35 -29 -84 -27 -79
2 2 9 -5 21 -14 27 -13 9 -20 6 -35 -10 -24 -28 -60 -15 -74 27 -12 32 -49 43
-49 15z"/>
<path d="M2008 766 c3 -5 -5 -7 -16 -4 -12 4 -25 2 -28 -3 -3 -5 -15 -9 -27
-10 -12 0 -16 -3 -9 -6 19 -8 14 -23 -8 -23 -21 0 -204 -109 -196 -117 2 -3
53 21 113 53 59 32 128 68 153 81 58 31 68 41 37 40 -14 -1 -23 -6 -19 -11z"/>
</g>
</svg>
